<?xml version="1.0" encoding="UTF-8"?>
<svg version="1.1" xmlns="http://www.w3.org/2000/svg" width="860" height="860">
<path d="M0 0 C2.33984375 0.50390625 2.33984375 0.50390625 5 2 C6.16152478 4.74170212 6.90330601 7.06766974 7.5625 9.9375 C7.76447998 10.78030518 7.96645996 11.62311035 8.17456055 12.49145508 C8.82378859 15.32039812 9.41914307 18.15626069 10 21 C10.20044922 21.95583984 10.40089844 22.91167969 10.60742188 23.89648438 C16.39750618 52.69503481 16.60297373 84.35144961 10 113 C9.79632812 113.91765137 9.59265625 114.83530273 9.3828125 115.78076172 C3.76312851 140.44926652 -6.83529597 163.11529685 -21 184 C-20.1495813 183.97643433 -20.1495813 183.97643433 -19.28198242 183.95239258 C0.11186506 183.48993742 17.71465071 185.41158232 36 192 C37.18464844 192.41894531 38.36929687 192.83789062 39.58984375 193.26953125 C54.22379386 198.78308249 68.25377922 206.15854516 81.1875 214.9375 C81.85257568 215.38569092 82.51765137 215.83388184 83.20288086 216.2956543 C85.58864298 217.97363294 87.72761831 219.69245166 89.6640625 221.87890625 C90.23638877 225.49254767 88.07811296 228.08002863 86.1875 231 C85.77097168 231.66499512 85.35444336 232.32999023 84.92529297 233.01513672 C71.6448072 253.90876724 54.96278747 272.37369145 35 287 C34.15260254 287.62986816 34.15260254 287.62986816 33.28808594 288.27246094 C21.50909098 296.92931266 7.8840662 304.37197793 -6 309 C-4.71029297 309.87398438 -4.71029297 309.87398438 -3.39453125 310.765625 C24.26801805 329.81494579 42.27550505 354.81136362 49 388 C54.50860349 417.94609951 47.1061456 448.92408822 30.02734375 473.8828125 C28.10075969 476.3434599 26.08858219 478.67554879 24 481 C23.17886719 481.96292969 22.35773438 482.92585938 21.51171875 483.91796875 C2.35405583 506.03895602 -25.25129568 519.40977653 -54.41015625 521.8359375 C-55.26480469 521.89007812 -56.11945313 521.94421875 -57 522 C-57.84433594 522.05414062 -58.68867187 522.10828125 -59.55859375 522.1640625 C-88.18237713 523.05728695 -115.02266497 513.04528787 -137 495 C-137.93070312 494.29617188 -138.86140625 493.59234375 -139.8203125 492.8671875 C-140.53960937 492.25101563 -141.25890625 491.63484375 -142 491 C-142 490.34 -142 489.68 -142 489 C-142.60215332 488.73445313 -143.20430664 488.46890625 -143.82470703 488.1953125 C-146.08078594 486.95560854 -147.20944967 485.86832297 -148.8046875 483.875 C-149.30323242 483.2550415 -149.80177734 482.63508301 -150.31542969 481.99633789 C-150.83008789 481.33754639 -151.34474609 480.67875488 -151.875 480 C-152.40512695 479.33025146 -152.93525391 478.66050293 -153.48144531 477.97045898 C-157.43851421 472.89765231 -160.95477775 467.67640113 -164 462 C-169.45338445 463.14750575 -174.75990489 464.48140627 -180.08862305 466.10668945 C-198.08526387 471.55816974 -216.20783915 474.56864301 -235 475 C-236.00289062 475.03996094 -237.00578125 475.07992188 -238.0390625 475.12109375 C-288.44361849 476.3279634 -338.88478221 456.06622029 -375.7265625 422.0859375 C-377.8389424 420.1477745 -379.99998072 418.28976729 -382.1875 416.4375 C-386.19646557 412.92268128 -389.61185073 409.11000065 -393 405 C-393.43328613 404.484375 -393.86657227 403.96875 -394.31298828 403.4375 C-415.75656566 377.85925792 -430.18018925 348.37715339 -438 316 C-438.32194336 314.73446289 -438.32194336 314.73446289 -438.65039062 313.44335938 C-445.40242567 286.1136937 -444.592237 253.25863972 -438 226 C-437.76394043 225.01515625 -437.52788086 224.0303125 -437.28466797 223.015625 C-428.02829068 185.77526763 -408.89347271 153.18997405 -382 126 C-381.42830078 125.4107373 -380.85660156 124.82147461 -380.26757812 124.21435547 C-376.50972662 120.37847549 -372.62608079 116.90307469 -368.375 113.625 C-367.77091309 113.15658691 -367.16682617 112.68817383 -366.54443359 112.20556641 C-355.58000438 103.77424913 -344.24251992 96.42877349 -332 90 C-331.34580078 89.65582031 -330.69160156 89.31164062 -330.01757812 88.95703125 C-312.21735244 79.74819298 -292.95569186 73.58105266 -273.19335938 70.35839844 C-271.23388241 70.03821676 -269.28042332 69.68169538 -267.328125 69.3203125 C-223.28230344 62.29990863 -180.59792616 73.3806319 -141 92 C-140.71116943 91.24855713 -140.42233887 90.49711426 -140.12475586 89.72290039 C-135.74117188 79.11076406 -128.47191561 69.82333397 -120.54296875 61.6484375 C-118.66587 59.69348672 -116.98566301 57.77124356 -115.30078125 55.6640625 C-114.54152344 54.78492188 -113.78226562 53.90578125 -113 53 C-112.34 53 -111.68 53 -111 53 C-111 52.34 -111 51.68 -111 51 C-84.17027695 25.59389491 -37.45354878 1.13852282 0 2 C0 1.34 0 0.68 0 0 Z " fill="#7BAD24" transform="translate(624,177)"/>
<path d="M0 0 C0.8682843 -0.00599213 1.7365686 -0.01198425 2.63116455 -0.01815796 C35.58398116 -0.16942469 71.92435818 9.32749323 99.125 28.4375 C100.47764474 29.36750732 101.83052923 30.29716601 103.18359375 31.2265625 C111.47551801 36.96464771 119.4201944 42.92850197 127.125 49.4375 C128.15625 50.22125 129.1875 51.005 130.25 51.8125 C133.92024651 55.16359464 136.89830987 58.92268669 139.9765625 62.81640625 C142.05575659 65.45245981 142.05575659 65.45245981 144.3984375 67.65234375 C146.125 69.4375 146.125 69.4375 146.125 71.4375 C146.785 71.4375 147.445 71.4375 148.125 71.4375 C148.455 72.7575 148.785 74.0775 149.125 75.4375 C149.785 75.4375 150.445 75.4375 151.125 75.4375 C154.125 79.82211538 154.125 79.82211538 154.125 82.4375 C154.785 82.4375 155.445 82.4375 156.125 82.4375 C156.125 83.4275 156.125 84.4175 156.125 85.4375 C156.785 85.4375 157.445 85.4375 158.125 85.4375 C159.81031151 88.42730744 161.46704297 91.43245289 163.125 94.4375 C163.764375 95.57445312 164.40375 96.71140625 165.0625 97.8828125 C169.10595898 105.17146344 172.40306491 112.28433945 175.01953125 120.21875 C176.09541764 123.49759486 176.09541764 123.49759486 177.60546875 126.80078125 C187.5321911 150.55856661 193.38635815 188.65342555 185.125 213.4375 C178.195 213.4375 171.265 213.4375 164.125 213.4375 C164.06441406 211.17132813 164.00382812 208.90515625 163.94140625 206.5703125 C163.87936068 204.34274803 163.81608003 202.11522176 163.75268555 199.88769531 C163.70973143 198.3555043 163.66803423 196.82327746 163.62768555 195.29101562 C163.40766529 186.9682742 163.10397801 178.71356617 162.125 170.4375 C160.90296875 170.60765625 159.6809375 170.7778125 158.421875 170.953125 C142.22242985 173.12371356 125.98192771 174.59906659 109.70019531 175.99121094 C101.16453338 176.73022059 92.72841448 177.5690287 84.27124023 178.97094727 C78.5931901 179.81293949 72.87241774 180.23433058 67.15353394 180.69955444 C54.33566887 181.74380893 41.55818081 182.96939223 28.79052734 184.52319336 C22.84995796 185.22532924 17.10759724 185.56823313 11.125 185.4375 C11.125 186.0975 11.125 186.7575 11.125 187.4375 C11.785 187.64375 12.445 187.85 13.125 188.0625 C16.38206532 189.5553216 18.83947611 191.37977711 21.6640625 193.55859375 C30.00907875 199.92994743 38.6954889 205.84796778 47.375 211.75 C56.11367482 217.69367477 64.68171183 223.85357978 73.23046875 230.06591797 C80.08183017 235.02609174 87.06426356 239.78150713 94.125 244.4375 C92.57305246 247.76509923 90.81878051 249.92330485 88.125 252.4375 C78.7945298 249.03698752 70.83976671 242.25185046 62.875 236.4375 C53.79716212 229.81637394 44.46541322 223.60722904 35.09765625 217.40625 C26.70680003 211.84776756 18.41249353 206.14850915 10.125 200.4375 C13.04172566 214.59897063 16.74365554 228.53436824 20.51792908 242.48684692 C22.42808264 249.5483445 24.30695941 256.61806036 26.1875 263.6875 C28.7432064 273.27264934 31.30268578 282.85679306 33.875 292.4375 C34.16624756 293.52289062 34.45749512 294.60828125 34.75756836 295.7265625 C36.19611648 301.06629334 37.67942975 306.38525485 39.25 311.6875 C41.01770221 317.78222978 42.45872623 323.94110149 43.875 330.125 C44.20975342 331.5805127 44.20975342 331.5805127 44.55126953 333.06542969 C44.85846924 334.43103027 44.85846924 334.43103027 45.171875 335.82421875 C45.35588867 336.64108154 45.53990234 337.45794434 45.72949219 338.29956055 C46.125 340.4375 46.125 340.4375 46.125 343.4375 C51.405 343.1075 56.685 342.7775 62.125 342.4375 C64.105 352.8325 64.105 352.8325 66.125 363.4375 C58.25 365.75 58.25 365.75 55.65405273 366.5065918 C51.84396974 367.6191412 48.07277066 368.79094374 44.3125 370.0625 C-4.38598803 384.03337771 -55.89382859 371.27148941 -98.9609375 347.50390625 C-99.59257812 347.15199219 -100.22421875 346.80007813 -100.875 346.4375 C-100.875 345.7775 -100.875 345.1175 -100.875 344.4375 C-102.855 343.7775 -104.835 343.1175 -106.875 342.4375 C-106.875 341.7775 -106.875 341.1175 -106.875 340.4375 C-107.9578125 340.06625 -107.9578125 340.06625 -109.0625 339.6875 C-112.20673468 338.29006236 -114.26325604 336.68481457 -116.875 334.4375 C-117.43614502 333.95772705 -117.99729004 333.4779541 -118.57543945 332.98364258 C-144.83973763 310.30617262 -165.0943117 283.28749623 -176.875 250.4375 C-177.2978125 249.27476562 -177.720625 248.11203125 -178.15625 246.9140625 C-183.52210555 231.56902437 -186.94594491 215.97615862 -187.1484375 199.69140625 C-187.16082962 198.77071854 -187.17322174 197.85003082 -187.18598938 196.90144348 C-187.21823851 193.93425856 -187.23716516 190.96733068 -187.25 188 C-187.25456207 186.9911676 -187.25912415 185.98233521 -187.26382446 184.94293213 C-187.28936775 169.19165768 -186.17515735 154.66536144 -181.875 139.4375 C-181.63346191 138.51356445 -181.39192383 137.58962891 -181.14306641 136.63769531 C-178.83377154 127.84941987 -175.64700623 119.71853105 -171.9375 111.4375 C-171.60298828 110.68210937 -171.26847656 109.92671875 -170.92382812 109.1484375 C-168.70549876 104.17322483 -166.34199579 99.2942255 -163.875 94.4375 C-163.215 94.4375 -162.555 94.4375 -161.875 94.4375 C-161.545 92.7875 -161.215 91.1375 -160.875 89.4375 C-160.215 89.4375 -159.555 89.4375 -158.875 89.4375 C-158.76027344 88.86515625 -158.64554688 88.2928125 -158.52734375 87.703125 C-157.81317644 85.22278344 -156.80192128 83.37381303 -155.4375 81.1875 C-154.78974609 80.12789062 -154.78974609 80.12789062 -154.12890625 79.046875 C-153.50822266 78.25023437 -153.50822266 78.25023437 -152.875 77.4375 C-152.215 77.4375 -151.555 77.4375 -150.875 77.4375 C-150.49408203 76.59638672 -150.49408203 76.59638672 -150.10546875 75.73828125 C-146.15716289 68.355576 -139.88365124 62.17910008 -133.875 56.4375 C-133.05 55.6125 -132.225 54.7875 -131.375 53.9375 C-130.55 53.1125 -129.725 52.2875 -128.875 51.4375 C-128.32972656 50.880625 -127.78445313 50.32375 -127.22265625 49.75 C-123.60265398 46.07454912 -119.97132373 42.58119031 -115.875 39.4375 C-115.215 39.4375 -114.555 39.4375 -113.875 39.4375 C-113.875 38.7775 -113.875 38.1175 -113.875 37.4375 C-112.555 37.1075 -111.235 36.7775 -109.875 36.4375 C-109.875 35.7775 -109.875 35.1175 -109.875 34.4375 C-108.885 34.4375 -107.895 34.4375 -106.875 34.4375 C-106.875 33.7775 -106.875 33.1175 -106.875 32.4375 C-105.25 31.24609375 -105.25 31.24609375 -102.875 29.875 C-101.97136719 29.35164063 -101.06773437 28.82828125 -100.13671875 28.2890625 C-99.06035156 27.67804688 -97.98398437 27.06703125 -96.875 26.4375 C-95.54811676 25.67458407 -94.22129732 24.91155718 -92.89453125 24.1484375 C-91.4926778 23.34809893 -90.09033386 22.54861886 -88.6875 21.75 C-88.02298828 21.369646 -87.35847656 20.98929199 -86.67382812 20.59741211 C-79.62012397 16.61963431 -72.20448621 13.74154256 -64.625 10.9375 C-63.84253906 10.64230469 -63.06007813 10.34710938 -62.25390625 10.04296875 C-56.21394502 7.806311 -50.11669791 6.02055573 -43.875 4.4375 C-43.09447266 4.23656738 -42.31394531 4.03563477 -41.50976562 3.82861328 C-27.76289846 0.48533314 -14.07173572 0.0321475 0 0 Z " fill="#FCFDF9" transform="translate(386.875,258.5625)"/>
<path d="M0 0 C0.68964844 0.64453125 1.37929688 1.2890625 2.08984375 1.953125 C2.08984375 2.613125 2.08984375 3.273125 2.08984375 3.953125 C2.74984375 3.953125 3.40984375 3.953125 4.08984375 3.953125 C5.9083444 6.01891761 7.60332693 8.08684845 9.27734375 10.265625 C10.01827271 11.22577515 10.01827271 11.22577515 10.77416992 12.20532227 C18.37158291 22.15700299 24.07912197 32.09162869 28.08984375 43.953125 C28.50621094 45.16871094 28.92257812 46.38429688 29.3515625 47.63671875 C35.06155647 66.46400541 34.36145708 89.36373516 28.08984375 107.953125 C27.71601562 109.09136719 27.3421875 110.22960937 26.95703125 111.40234375 C17.90417544 136.73235422 -0.14785204 158.3279585 -24.36669922 170.36645508 C-39.96575704 177.73394523 -55.34146807 181.35051115 -72.59765625 181.328125 C-73.82919434 181.32723877 -75.06073242 181.32635254 -76.32958984 181.32543945 C-85.83298733 181.20222178 -93.90745986 179.93927736 -102.91015625 176.953125 C-104.20566406 176.64761719 -104.20566406 176.64761719 -105.52734375 176.3359375 C-127.35351514 171.11196861 -147.83765277 152.74926335 -159.8515625 134.38671875 C-175.48953419 108.76421787 -180.83934459 79.91580525 -174.09765625 50.5390625 C-172.63984664 44.6768575 -170.61150171 39.35581592 -167.91015625 33.953125 C-167.61544434 33.32374023 -167.32073242 32.69435547 -167.01708984 32.04589844 C-155.39298429 7.25326666 -134.48707071 -11.99359462 -108.91015625 -22.046875 C-69.50613613 -35.44031765 -31.70960007 -25.57646755 0 0 Z " fill="#FBFCF4" transform="translate(633.91015625,507.046875)"/>
<path d="M0 0 C2.33984375 0.50390625 2.33984375 0.50390625 5 2 C6.16152478 4.74170212 6.90330601 7.06766974 7.5625 9.9375 C7.76447998 10.78030518 7.96645996 11.62311035 8.17456055 12.49145508 C8.82378859 15.32039812 9.41914307 18.15626069 10 21 C10.20044922 21.95583984 10.40089844 22.91167969 10.60742188 23.89648438 C16.39750618 52.69503481 16.60297373 84.35144961 10 113 C9.79632812 113.91765137 9.59265625 114.83530273 9.3828125 115.78076172 C4.96558238 135.17090226 -3.52160349 169.28285668 -21 181 C-21.64136376 182.6202874 -22.28193812 184.24089296 -22.91796875 185.86328125 C-27.7017215 195.3098977 -36.79196606 203.27999355 -44 211 C-46.64494844 209.67752578 -46.68873687 208.62399197 -47.6640625 205.87109375 C-47.97722412 205.00887207 -48.29038574 204.14665039 -48.61303711 203.25830078 C-48.94698486 202.32743652 -49.28093262 201.39657227 -49.625 200.4375 C-56.93668729 180.70914111 -66.82949879 162.45768416 -80 146 C-80.40943848 145.48759766 -80.81887695 144.97519531 -81.24072266 144.44726562 C-90.30766202 133.1888896 -100.25154186 121.87197157 -112.1328125 113.52734375 C-114 112 -114 112 -115.77783203 109.61279297 C-118.15505034 106.81769406 -120.22162019 105.4281089 -123.421875 103.66796875 C-124.44667969 103.09755859 -125.47148437 102.52714844 -126.52734375 101.93945312 C-127.59082031 101.36130859 -128.65429688 100.78316406 -129.75 100.1875 C-130.82894531 99.59001953 -131.90789062 98.99253906 -133.01953125 98.37695312 C-135.67462209 96.90842943 -138.33470581 95.44989716 -141 94 C-138.81468319 87.35991224 -136.55797046 81.51434061 -132.3125 75.9375 C-131.88042236 75.35097656 -131.44834473 74.76445312 -131.00317383 74.16015625 C-127.58034989 69.5872385 -123.87575087 65.30756189 -119.9765625 61.1328125 C-118.24839301 59.26802882 -116.64405485 57.36350464 -115.0625 55.375 C-114.381875 54.59125 -113.70125 53.8075 -113 53 C-112.34 53 -111.68 53 -111 53 C-111 52.34 -111 51.68 -111 51 C-84.17027695 25.59389491 -37.45354878 1.13852282 0 2 C0 1.34 0 0.68 0 0 Z " fill="#476C1D" transform="translate(624,177)"/>
<path d="M0 0 C2 1 2 1 2.91381836 3.43334961 C3.21940674 4.49561768 3.52499512 5.55788574 3.83984375 6.65234375 C4.3512793 8.40708008 4.3512793 8.40708008 4.87304688 10.19726562 C5.39995117 12.04868164 5.39995117 12.04868164 5.9375 13.9375 C6.63404874 16.34246699 7.33066232 18.7474152 8.02734375 21.15234375 C8.36362793 22.32007324 8.69991211 23.48780273 9.04638672 24.69091797 C10.92936755 31.22494824 12.81891924 37.68559224 15.26318359 44.03369141 C16.57787067 47.5421373 17.69083811 51.1135773 18.8125 54.6875 C19.07401855 55.51580322 19.33553711 56.34410645 19.60498047 57.19750977 C21.14162203 62.11060967 22.58360398 67.04018539 23.95214844 72.00244141 C27.38846519 84.43851664 31.46810559 96.64006409 35.59814453 108.85913086 C38.04930287 116.11326811 40.4807377 123.37317932 42.80859375 130.66796875 C43.20747803 131.91215576 43.6063623 133.15634277 44.01733398 134.43823242 C45.00004075 138.00014769 45.56316512 141.33992891 46 145 C40.39799677 147.99538284 35.08877065 150.07496862 28.9375 151.625 C28.10677979 151.83664795 27.27605957 152.0482959 26.42016602 152.26635742 C-1.99880062 159.28045825 -26.86192917 156.36732674 -52.625 142.52734375 C-55.10935319 140.92967582 -56.99453272 139.15866269 -59 137 C-56.56166346 129.09092294 -53.37146593 121.53642523 -50.12182617 113.93603516 C-49.19617915 111.77030654 -48.27637297 109.60217072 -47.35742188 107.43359375 C-44.12932962 99.83915325 -40.78929311 92.31622825 -37.30200195 84.83691406 C-35.58738615 81.10096138 -34.02501718 77.31631773 -32.5 73.5 C-30.01484576 67.36958634 -27.34554407 61.36285972 -24.53125 55.375 C-22.75270932 51.45495115 -21.11918388 47.487859 -19.5 43.5 C-17.01558286 37.3811735 -14.35738731 31.38217358 -11.54296875 25.40625 C-9.36731335 20.60328416 -7.39398397 15.72201947 -5.44726562 10.82226562 C-3.90618577 6.99302504 -2.25164148 3.48290163 0 0 Z " fill="#B1DB0D" transform="translate(385,464)"/>
<path d="M0 0 C2.45592455 1.69291886 4.22939566 3.58170613 6.19921875 5.82421875 C6.98554688 6.71753906 7.771875 7.61085938 8.58203125 8.53125 C10.95827347 11.32390766 13.2729905 14.15708093 15.57421875 17.01171875 C18.24818075 20.32057294 20.95895132 23.42462758 24.01171875 26.38671875 C26.98367477 29.27109257 29.61123549 32.27791817 32.19921875 35.51171875 C35.81053883 40.01649691 39.61693087 44.25211242 43.57421875 48.44921875 C47.19942615 52.29725336 50.70965253 56.13919973 53.94921875 60.32421875 C57.92444627 65.44485081 62.35349262 70.08088782 66.80395508 74.78442383 C70.9980686 79.23943943 74.90807824 83.84282523 78.72265625 88.62890625 C81.91176279 92.47107215 85.31569028 96.09961842 88.76416016 99.70947266 C92.23042115 103.38107257 95.14740084 107.22614018 98.01171875 111.38671875 C87.67951901 110.82376023 77.49746451 109.79372225 67.2421875 108.390625 C65.78547197 108.19471983 64.32870918 107.99916575 62.87190247 107.80393982 C59.84882014 107.39773526 56.82621954 106.98817232 53.80395508 106.57592773 C49.95771918 106.05145031 46.11053975 105.53431522 42.26299572 105.0195322 C39.26585926 104.61791879 36.26916924 104.21305241 33.2726078 103.80717278 C31.85474262 103.61538863 30.43676503 103.42443335 29.01866722 103.23437691 C21.98615542 102.28964374 15.01859184 101.26064206 8.07362366 99.80180359 C5.43101548 99.2698166 2.79476302 98.94301785 0.11328125 98.67578125 C-0.93021484 98.56733887 -1.97371094 98.45889648 -3.04882812 98.34716797 C-4.14259766 98.23646973 -5.23636719 98.12577148 -6.36328125 98.01171875 C-16.43331414 96.94364232 -26.46348702 95.69420462 -36.48828125 94.26171875 C-37.69274902 94.0910791 -38.8972168 93.92043945 -40.13818359 93.74462891 C-48.5976063 92.51694373 -48.5976063 92.51694373 -51.98828125 91.38671875 C-53.31355341 64.36589198 -44.06211233 37.61276904 -25.91796875 17.43359375 C-7.40833583 -2.2850859 -7.40833583 -2.2850859 0 0 Z " fill="#B1DB0C" transform="translate(272.98828125,322.61328125)"/>
<path d="M0 0 C-0.36351562 0.8971875 -0.72703125 1.794375 -1.1015625 2.71875 C-3.84920917 9.53018178 -6.52297773 16.35807625 -9.0625 23.25 C-11.0738399 28.69735175 -13.31566017 33.9719798 -15.78515625 39.2265625 C-17.69670157 43.59054057 -19.18562284 48.09616567 -20.75 52.59375 C-22.20653032 56.56279512 -23.95127262 60.33395431 -25.75 64.15625 C-27.17096239 67.38893945 -28.34000735 70.66502113 -29.5 74 C-31.3142956 79.21609985 -33.40069566 84.16397828 -35.75 89.15625 C-37.17096239 92.38893945 -38.34000735 95.66502113 -39.5 99 C-40.98773255 103.27723109 -42.57189627 107.40277958 -44.5 111.5 C-46.97933498 116.76955836 -48.88402955 122.17547097 -50.796875 127.671875 C-52.32325195 131.89419046 -54.10587963 135.93114883 -56 140 C-72.59145728 138.25353081 -89.10712897 126.91499006 -102 117 C-102.67289062 116.51273438 -103.34578125 116.02546875 -104.0390625 115.5234375 C-116.50588432 105.89266993 -128.57485274 87.60719934 -131.53125 72.23828125 C-131.76545853 70.16618631 -131.89586563 68.08268747 -132 66 C-130.0898586 64.82268014 -128.17162056 63.65848895 -126.25 62.5 C-124.64898437 61.52546875 -124.64898437 61.52546875 -123.015625 60.53125 C-120 59 -120 59 -116 59 C-116 58.34 -116 57.68 -116 57 C-115.01902344 56.5153125 -114.03804688 56.030625 -113.02734375 55.53125 C-106.13408035 52.11219135 -99.27358186 48.65122097 -92.5 45 C-87.41832158 42.26165507 -82.29816884 39.62377537 -77.125 37.0625 C-71.53511281 34.29479757 -66.00271381 31.43716609 -60.5 28.5 C-54.38758992 25.23777431 -48.22850832 22.09340353 -42.01953125 19.01953125 C-37.13610643 16.59221007 -32.31153486 14.06651768 -27.5 11.5 C-24.66859876 9.99632907 -21.8351547 8.49658143 -19 7 C-18.25524414 6.60651367 -17.51048828 6.21302734 -16.74316406 5.80761719 C-14.54282077 4.65198665 -12.33530462 3.51143973 -10.125 2.375 C-9.45275391 2.01986328 -8.78050781 1.66472656 -8.08789062 1.29882812 C-3.34407552 -1.11469184 -3.34407552 -1.11469184 0 0 Z " fill="#B1DB0C" transform="translate(374,460)"/>
<path d="M0 0 C10.31645565 0.57583901 20.38002628 2.02929435 30.5625 3.6875 C32.22699461 3.95453331 33.89154655 4.22120948 35.55615234 4.48754883 C48.61287895 6.58381013 61.65556369 8.76496878 74.69677734 10.95532227 C83.10534329 12.365543 91.5185692 13.71942621 99.9543457 14.95776367 C115.70038781 17.26950003 131.43496162 19.65921127 147 23 C144.16193311 26.03646649 141.31726467 28.21460801 137.765625 30.36328125 C136.21004883 31.31134644 136.21004883 31.31134644 134.62304688 32.27856445 C132.95338867 33.28536255 132.95338867 33.28536255 131.25 34.3125 C129.48908967 35.3831055 127.72948708 36.45583772 125.9699707 37.5287323 C124.76575678 38.2629206 123.56116321 38.99648657 122.35620117 39.72944641 C116.37183672 43.37232442 110.43367273 47.08771274 104.5 50.8125 C97.65092352 55.10634837 90.78509938 59.36758109 83.875 63.5625 C76.39228554 68.10937626 69.0020876 72.7933945 61.62402344 77.5078125 C51.64319767 83.88048086 41.60581894 90.16287319 31.54394531 96.40673828 C29.89855092 97.43724153 28.26174769 98.48164788 26.63574219 99.54248047 C25.92836914 100.00154785 25.22099609 100.46061523 24.4921875 100.93359375 C23.88487793 101.33505615 23.27756836 101.73651855 22.65185547 102.15014648 C21 103 21 103 18 103 C16.26192283 100.80309477 14.75072496 98.66487997 13.25 96.3125 C12.80825439 95.63058594 12.36650879 94.94867187 11.91137695 94.24609375 C-3.11983972 70.75930611 -10.86685815 44.70845918 -5.75 16.875 C-4.40262722 10.97621485 -2.48424629 5.50646838 0 0 Z " fill="#B1DB0C" transform="translate(223,420)"/>
<path d="M0 0 C10.29501315 1.57649853 21.46447749 15.04908658 27.55371094 23.03857422 C40.75489563 41.31247379 49.22380871 60.39225151 49.125 83.25 C49.12886719 84.16007812 49.13273438 85.07015625 49.13671875 86.0078125 C49.13478516 87.31105469 49.13478516 87.31105469 49.1328125 88.640625 C49.13168457 89.42985352 49.13055664 90.21908203 49.12939453 91.03222656 C49 93 49 93 48 95 C45.32489748 95.4856854 42.72275192 95.8353147 40.0234375 96.12109375 C39.15106949 96.22163559 38.27870148 96.32217743 37.37989807 96.42576599 C35.42743942 96.6502113 33.47450885 96.87057629 31.52120972 97.08758545 C25.95843185 97.70626541 20.39922599 98.35552518 14.83984375 99.00390625 C13.58045486 99.15025513 12.32106598 99.296604 11.02351379 99.4473877 C-0.78536456 100.82788761 -12.57827317 102.32910314 -24.37109375 103.83984375 C-26.33569017 104.091064 -28.30028978 104.34225922 -30.26489258 104.59342957 C-38.17161765 105.60500871 -46.07819093 106.6176867 -53.98345947 107.64059448 C-58.71269824 108.25246162 -63.44258894 108.85903787 -68.17296028 109.46208382 C-69.93532753 109.68782667 -71.69743543 109.915605 -73.45925713 110.14556694 C-75.90066876 110.4640685 -78.34288782 110.77551997 -80.78540039 111.08544922 C-81.48810373 111.17889335 -82.19080708 111.27233747 -82.91480446 111.36861324 C-87.97158601 111.99970748 -92.90386564 112.07306803 -98 112 C-96.60194671 109.09873022 -95.21756587 106.94375398 -92.98828125 104.609375 C-92.39877686 103.98635498 -91.80927246 103.36333496 -91.2019043 102.72143555 C-90.57840088 102.07086182 -89.95489746 101.42028809 -89.3125 100.75 C-88.03296904 99.39797253 -86.75431233 98.04511712 -85.4765625 96.69140625 C-84.86844727 96.0483252 -84.26033203 95.40524414 -83.63378906 94.74267578 C-81.23032533 92.17902902 -78.92253938 89.54044044 -76.62890625 86.87890625 C-72.39028533 81.98975358 -68.00840736 77.22407526 -63.671875 72.421875 C-59.68295423 67.99878599 -55.72432093 63.55384995 -51.8125 59.0625 C-48.9673071 55.8248667 -46.07146164 52.6331371 -43.18359375 49.43359375 C-41.29151315 47.32488854 -39.42094242 45.20080199 -37.5625 43.0625 C-33.91062947 38.86835635 -30.15733816 34.76905708 -26.41015625 30.66015625 C-23.82814469 27.81031853 -21.29347287 24.92407906 -18.7734375 22.01953125 C-16.731803 19.69458623 -14.64665651 17.41188163 -12.5625 15.125 C-8.15713117 10.25033071 -4.04273952 5.17735034 0 0 Z " fill="#B1DB0C" transform="translate(496,320)"/>
<path d="M0 0 C34.1337 -0.65376809 34.1337 -0.65376809 47 4 C48.36029003 4.45298688 49.72098362 4.90476327 51.08203125 5.35546875 C69.32082754 11.5964036 86.19031929 22.72238741 97 39 C95.40206611 42.86243448 92.77849039 45.58214575 89.9375 48.5625 C86.2907372 52.45783782 82.78494697 56.40210162 79.4375 60.5625 C76.40642433 64.32838189 73.27418423 67.94329756 70 71.5 C66.70668301 75.07792463 63.55348679 78.71539666 60.5 82.5 C56.66280969 87.25595419 52.60614899 91.75504801 48.46875 96.25 C46.05621896 98.93737634 43.7674379 101.68965444 41.5 104.5 C37.66280969 109.25595419 33.60614899 113.75504801 29.46875 118.25 C27.05621896 120.93737634 24.7674379 123.68965444 22.5 126.5 C18.62460601 131.29973708 14.54953293 135.8692864 10.37109375 140.40625 C7.60796614 143.42884758 4.93250636 146.51924547 2.27734375 149.63671875 C1.64505859 150.31154297 1.64505859 150.31154297 1 151 C0.67 151 0.34 151 0 151 C-0.92608853 144.72820491 -1.14261602 138.63696676 -1.12939453 132.30249023 C-1.13114685 131.25871719 -1.13289917 130.21494415 -1.13470459 129.13954163 C-1.13909537 125.69587526 -1.13618991 122.25226063 -1.1328125 118.80859375 C-1.13348749 116.38322439 -1.13445915 113.95785509 -1.13571167 111.53248596 C-1.13718587 106.43758503 -1.13504726 101.34270162 -1.13037109 96.24780273 C-1.12474308 89.81106324 -1.12799571 83.37436574 -1.13382339 76.93762779 C-1.17328439 25.26787336 -1.17328439 25.26787336 0 0 Z " fill="#B1DB0C" transform="translate(390,275)"/>
<path d="M0 0 C0 0.66 0 1.32 0 2 C0.969375 1.979375 1.93875 1.95875 2.9375 1.9375 C6 2 6 2 7 3 C7.0965683 4.89828236 7.12187216 6.80020663 7.12025452 8.70094299 C7.12231651 10.55832596 7.12231651 10.55832596 7.12442017 12.45323181 C7.12088056 13.83804345 7.11724574 15.22285485 7.11352539 16.60766602 C7.11324352 18.05607094 7.11340124 19.50447601 7.1139679 20.95288086 C7.11425589 24.89692314 7.1083588 28.84093527 7.10139394 32.78497052 C7.09516078 36.90229469 7.09455663 41.01961948 7.09336853 45.13694763 C7.0902551 52.93905862 7.08204156 60.74115567 7.07201904 68.54326051 C7.06085826 77.42340304 7.05534754 86.30354622 7.05032361 95.18369401 C7.03985896 113.45580392 7.02225929 131.72790084 7 150 C5.87690726 149.04703502 4.75518128 148.09245912 3.6340332 147.13720703 C3.00922562 146.60580109 2.38441803 146.07439514 1.74067688 145.52688599 C-0.27005349 143.76311463 -2.06382202 141.89806071 -3.8125 139.875 C-4.37582031 139.23304688 -4.93914062 138.59109375 -5.51953125 137.9296875 C-6.97764148 136.02914276 -8.0091726 134.17498697 -9 132 C-9.66 132 -10.32 132 -11 132 C-16 126.52380952 -16 126.52380952 -16 124 C-16.66 124 -17.32 124 -18 124 C-19.41438406 122.42713316 -20.75604401 120.78860004 -22.0625 119.125 C-25.97045961 114.22101822 -30.06024465 109.5766617 -34.34765625 104.99609375 C-36 103 -36 103 -36 101 C-36.66 101 -37.32 101 -38 101 C-43 95.52380952 -43 95.52380952 -43 93 C-43.66 93 -44.32 93 -45 93 C-46.41438406 91.42713316 -47.75604401 89.78860004 -49.0625 88.125 C-52.97045961 83.22101822 -57.06024465 78.5766617 -61.34765625 73.99609375 C-63 72 -63 72 -63 70 C-63.66 70 -64.32 70 -65 70 C-66.41438406 68.42713316 -67.75604401 66.78860004 -69.0625 65.125 C-73.51477171 59.55787374 -78.20176404 54.2684805 -83 49 C-84.35973348 47.50504441 -85.71438453 46.00544081 -87.0625 44.5 C-87.63097656 43.8709375 -88.19945312 43.241875 -88.78515625 42.59375 C-90 41 -90 41 -90 39 C-90.66 39 -91.32 39 -92 39 C-90.25836922 29.51323468 -77.521665 22.24480639 -70 17 C-47.27883539 2.37894438 -26.65729195 -0.56643477 0 0 Z " fill="#B1DB0B" transform="translate(374,276)"/>
<path d="M0 0 C2.45058068 8.9707277 2.22989644 17.9178637 2.125 27.125 C2.11494704 28.66926501 2.10582529 30.21353638 2.09765625 31.7578125 C2.07583336 35.50534249 2.04143206 39.25262946 2 43 C0.73027344 43.23074219 -0.53945313 43.46148437 -1.84765625 43.69921875 C-25.27158851 48.07848559 -44.545581 55.73555914 -63 71 C-64.66511205 72.33527428 -66.33125574 73.66926781 -68 75 C-72.60629839 71.96241004 -77.12497813 68.81745031 -81.625 65.625 C-90.59173743 59.27923247 -99.58948869 52.97830089 -108.59228516 46.68383789 C-111.95739982 44.33044143 -115.32113011 41.9750691 -118.68481445 39.61962891 C-121.03824808 37.97324288 -123.39391813 36.33009328 -125.75 34.6875 C-130.52775288 31.34609688 -135.27008947 27.95612644 -140.00292969 24.55151367 C-140.56399414 24.14908447 -141.12505859 23.74665527 -141.703125 23.33203125 C-142.24775391 22.94096191 -142.79238281 22.54989258 -143.35351562 22.14697266 C-145.01471027 20.98975255 -146.71218557 19.90805762 -148.421875 18.82421875 C-149.27265625 18.22222656 -150.1234375 17.62023437 -151 17 C-151 16.34 -151 15.68 -151 15 C-145.70915249 14.38851144 -140.41744497 13.78497944 -135.125 13.1875 C-134.32311249 13.0969635 -133.52122498 13.006427 -132.69503784 12.91314697 C-119.28280503 11.40685083 -105.86159625 10.12287286 -92.40869141 9.03979492 C-86.52406692 8.55200482 -80.70582162 8.00394552 -74.87890625 7.0390625 C-65.43741365 5.50519111 -55.89899521 4.82411451 -46.375 4 C-42.59094943 3.66887132 -38.8071398 3.33508319 -35.0234375 3 C-34.10222107 2.9189502 -33.18100464 2.83790039 -32.23187256 2.75439453 C-25.16383786 2.12475328 -18.10790222 1.40384912 -11.05648804 0.609375 C-7.35272513 0.20138168 -3.72741806 -0.10325769 0 0 Z " fill="#B1DB0C" transform="translate(549,429)"/>
<path d="M0 0 C0.66 0.33 1.32 0.66 2 1 C1.01 2.485 1.01 2.485 0 4 C0.5669458 3.98428955 1.1338916 3.9685791 1.71801758 3.95239258 C21.11186506 3.48993742 38.71465071 5.41158232 57 12 C58.18464844 12.41894531 59.36929688 12.83789062 60.58984375 13.26953125 C100.20555282 28.19531957 100.20555282 28.19531957 107.33203125 40.25390625 C107.55246094 40.83011719 107.77289062 41.40632813 108 42 C71.36402727 60.77450939 24.9733716 69.15186185 -16 68 C-17.5627291 66.4372709 -17.49963997 64.66718452 -17.8671875 62.51171875 C-18.02928711 61.58270752 -18.19138672 60.65369629 -18.35839844 59.6965332 C-18.61411621 58.20706177 -18.61411621 58.20706177 -18.875 56.6875 C-20.15196707 49.41640265 -21.5243666 42.26520007 -23.484375 35.14453125 C-24 33 -24 33 -24 30 C-22.43456013 28.678073 -20.86383529 27.36210499 -19.2734375 26.0703125 C-16.35873066 23.4160262 -13.85019833 20.51120348 -11.3125 17.5 C-10.84932373 16.95424316 -10.38614746 16.40848633 -9.90893555 15.84619141 C-5.82594048 10.9536433 -2.14098222 6.06611628 0 0 Z " fill="#6F9B20" transform="translate(603,357)"/>
<path d="M0 0 C-9.28177254 23.80976434 -30.73905635 44.15523878 -51 59 C-51.56493164 59.41991211 -52.12986328 59.83982422 -52.71191406 60.27246094 C-60.70575347 66.14745135 -69.13097242 70.75368223 -78.0625 75.0625 C-79.05048584 75.54009766 -80.03847168 76.01769531 -81.05639648 76.50976562 C-92.52455244 81.88623022 -92.52455244 81.88623022 -97.90234375 79.9609375 C-98.90394531 79.43757813 -99.90554688 78.91421875 -100.9375 78.375 C-108.08801855 74.84102547 -115.39834347 72.37617479 -123 70 C-124.0387015 65.90674669 -123.92705618 62.44464641 -123.5625 58.25 C-122.67947653 46.85222601 -122.91118362 35.42315329 -123 24 C-122.13761719 23.93530518 -121.27523437 23.87061035 -120.38671875 23.80395508 C-80.54308212 20.74047589 -40.70631118 15.8907824 -3.83056641 -0.41430664 C-2 -1 -2 -1 0 0 Z " fill="#709B20" transform="translate(710,405)"/>
<path d="M0 0 C4.55571061 2.54915204 8.92836372 5.21767082 13.24609375 8.16015625 C14.09880104 8.73975098 14.09880104 8.73975098 14.96873474 9.33105469 C16.79342257 10.57229957 18.61553531 11.81726221 20.4375 13.0625 C21.70251858 13.92457117 22.96765602 14.78646795 24.23291016 15.64819336 C27.28983487 17.73124429 30.34453581 19.81752596 33.39825439 21.90527344 C35.56523006 23.38631126 37.73396005 24.86477472 39.90234375 26.34375 C46.65059297 30.95647732 53.33756299 35.64409136 59.96704102 40.42602539 C64.8068383 43.90285499 69.76040353 47.17711615 74.76953125 50.40625 C77 52 77 52 78 54 C77.05640625 55.2375 77.05640625 55.2375 76.09375 56.5 C56.28335702 83.00850739 51.22290715 110.46172753 52 143 C48.65278514 143.90575383 45.72693522 144.10389209 42.25 144.0625 C41.26515625 144.05347656 40.2803125 144.04445313 39.265625 144.03515625 C38.14414062 144.01775391 38.14414062 144.01775391 37 144 C32.31148867 126.32200647 32.31148867 126.32200647 30.125 117.5 C25.65056462 99.4797662 20.9037958 81.53969893 15.91772461 63.65454102 C13.48938296 54.89750745 11.24362688 46.10688553 9.08666992 37.27954102 C7.46248438 30.68587437 5.60985284 24.19469437 3.62353516 17.70239258 C1.8769966 11.87214249 0.77840135 6.02970596 0 0 Z " fill="#B1DB0C" transform="translate(396,458)"/>
<path d="M0 0 C1.63243696 4.89731089 1.22643476 9.93411481 1.25 15.0625 C1.270625 16.15755859 1.29125 17.25261719 1.3125 18.38085938 C1.3710472 30.66845279 -1.92210072 42.06790947 -10.16796875 51.47265625 C-12.06552054 53.37692504 -13.98799158 55.2177895 -16 57 C-20.57558824 54.86103363 -24.62440458 52.28678835 -28.6875 49.3125 C-29.29907959 48.87043213 -29.91065918 48.42836426 -30.54077148 47.97290039 C-32.36405075 46.65338133 -34.18285622 45.32795196 -36 44 C-42.90131261 38.95887947 -49.84568145 33.99781615 -56.8828125 29.1484375 C-65.9951263 22.86802072 -75.00263826 16.4433556 -84 10 C-80.64429135 8.03465742 -77.70890451 7.55816371 -73.86132812 7.14624023 C-72.61903442 7.00947372 -71.37674072 6.87270721 -70.09680176 6.73179626 C-68.74163893 6.59052628 -67.38645442 6.44946413 -66.03125 6.30859375 C-64.63075031 6.15753873 -63.23031985 6.00584056 -61.82995605 5.85353088 C-58.13963289 5.45409194 -54.44835991 5.0641865 -50.75683594 4.67602539 C-47.77472516 4.36084557 -44.79336312 4.03890958 -41.81201935 3.71656704 C-38.21868203 3.32821609 -34.62501147 2.94299763 -31.03125 2.55859375 C-30.36062027 2.48677824 -29.68999054 2.41496273 -28.9990387 2.34097099 C-7.05850165 0 -7.05850165 0 0 0 Z " fill="#B2DB0E" transform="translate(652,574)"/>
<path d="M0 0 C0 27.39 0 54.78 0 83 C-1.32 82.01 -2.64 81.02 -4 80 C-4 79.34 -4 78.68 -4 78 C-4.66 78 -5.32 78 -6 78 C-11 72.52380952 -11 72.52380952 -11 70 C-11.66 70 -12.32 70 -13 70 C-14.37212301 68.46804728 -15.6715446 66.87078919 -16.9375 65.25 C-20.32074328 61.01415769 -23.80096091 56.96140526 -27.5 53 C-31.77923722 48.40282153 -35.78674176 43.65076389 -39.71875 38.75 C-43.03177461 34.7562169 -46.57043059 30.98996937 -50.12890625 27.21484375 C-52 25 -52 25 -52 23 C-52.66 23 -53.32 23 -54 23 C-54.66 21.68 -55.32 20.36 -56 19 C-43.87888357 5.43589352 -18.60885615 -9.30442808 0 0 Z " fill="#B2DB0E" transform="translate(559,490)"/>
<path d="M0 0 C2.32488797 2.32488797 2.75880207 3.87705869 3.734375 6.99609375 C4.05817139 8.02033447 4.38196777 9.0445752 4.71557617 10.09985352 C5.05693604 11.20127686 5.3982959 12.3027002 5.75 13.4375 C6.28234253 15.12927368 6.28234253 15.12927368 6.82543945 16.85522461 C7.54779513 19.15235794 8.26760953 21.45029197 8.98486328 23.74902344 C10.12962762 27.4151326 11.28895576 31.07646782 12.45043945 34.73730469 C14.70845278 41.86062992 16.94583703 48.99061581 19.16552734 56.12597656 C20.23719156 59.57030012 21.3210801 63.01017612 22.421875 66.4453125 C22.65447021 67.17596924 22.88706543 67.90662598 23.12670898 68.65942383 C23.57326656 70.06141432 24.02313253 71.46235672 24.47680664 72.86206055 C25.37776206 75.70157836 26 77.99941915 26 81 C11.27925631 87.21408443 -3.91974742 89.95996155 -19.328125 84.1171875 C-23.91475543 82.18837272 -27.96220056 79.89893293 -32 77 C-31.59793505 71.90717725 -29.69759848 68.25418165 -27.3828125 63.81640625 C-25.94294918 60.88380327 -24.76985683 57.93426975 -23.625 54.875 C-20.18010181 45.69222723 -16.41050179 36.51625647 -11.875 27.8125 C-9.6311471 23.47756716 -8.02113964 18.9067408 -6.3046875 14.34375 C-4.40271088 9.4692231 -2.22867582 4.73237973 0 0 Z " fill="#B2DB0D" transform="translate(560,594)"/>
<path d="M0 0 C4.37915711 1.58107335 6.82460919 5.02176851 9.6875 8.5 C10.75935938 9.77823108 11.83228334 11.05557019 12.90625 12.33203125 C13.4321875 12.95932129 13.958125 13.58661133 14.5 14.23291016 C16.50955684 16.60028848 18.59182377 18.89627652 20.6875 21.1875 C23.6791816 24.47942205 26.52524423 27.84591307 29.3125 31.3125 C34.16064033 37.30687315 39.39189513 42.90366478 44.64453125 48.54003906 C46.49177828 50.52968914 48.31754183 52.53664063 50.125 54.5625 C50.90230469 55.43068359 50.90230469 55.43068359 51.6953125 56.31640625 C53.09224702 58.11903732 54.00763804 59.95275886 55 62 C45.3905154 62.55933332 36.10935742 61.0394497 26.64361572 59.60653687 C21.96787891 58.89885249 17.28857622 58.21558935 12.609375 57.53125 C11.69161285 57.39647751 10.77385071 57.26170502 9.82827759 57.12284851 C1.27235256 55.87490723 -7.29795398 54.81093375 -15.89111328 53.8503418 C-17.24052002 53.69819214 -17.24052002 53.69819214 -18.6171875 53.54296875 C-19.37628418 53.46071045 -20.13538086 53.37845215 -20.91748047 53.29370117 C-22.99687762 53.00044036 -24.97392047 52.54707013 -27 52 C-27.8305214 36.37389372 -22.96518342 22.29395908 -13.078125 10.11328125 C-9.17807174 6.14724964 -4.62069949 3.06654017 0 0 Z " fill="#B2DB0D" transform="translate(496,514)"/>
<path d="M0 0 C22.35761589 0 22.35761589 0 32 4 C32.8559375 4.32742188 33.711875 4.65484375 34.59375 4.9921875 C39.99030308 7.33183235 44.2992899 10.64998474 48.6875 14.5 C49.22963135 14.962854 49.7717627 15.42570801 50.33032227 15.90258789 C51.82421875 17.28125 51.82421875 17.28125 54 20 C53.94187922 23.59292088 53.01556629 24.97665056 51 28 C50.34 28 49.68 28 49 28 C48.7628125 28.54140625 48.525625 29.0828125 48.28125 29.640625 C46.65652243 32.63250137 44.6498123 35.11159399 42.5 37.75 C41.30890625 39.22726562 41.30890625 39.22726562 40.09375 40.734375 C39.4028125 41.48203125 38.711875 42.2296875 38 43 C37.34 43 36.68 43 36 43 C35.71125 43.598125 35.4225 44.19625 35.125 44.8125 C34 47 34 47 32 50 C31.34 50 30.68 50 30 50 C29.75378906 50.56460938 29.50757813 51.12921875 29.25390625 51.7109375 C27.78593095 54.39079272 26.0064331 56.37958803 23.9375 58.625 C21.14219542 61.58789167 21.14219542 61.58789167 19 65 C18.34 65 17.68 65 17 65 C16.7628125 65.54140625 16.525625 66.0828125 16.28125 66.640625 C14.65652243 69.63250137 12.6498123 72.11159399 10.5 74.75 C9.7059375 75.73484375 8.911875 76.7196875 8.09375 77.734375 C7.4028125 78.48203125 6.711875 79.2296875 6 80 C5.34 80 4.68 80 4 80 C3.71125 80.639375 3.4225 81.27875 3.125 81.9375 C2 84 2 84 0 85 C0 56.95 0 28.9 0 0 Z " fill="#B2DB0D" transform="translate(563,488)"/>
<path d="M0 0 C5.24922977 0.91948814 8.27402742 4.41410158 12 8 C12.60328125 8.5775 13.2065625 9.155 13.828125 9.75 C25.43549499 21.8802245 28.34291381 35.82392779 28 52 C12.84225695 54.38982909 -2.35584075 56.35861152 -17.5871582 58.21704102 C-21.48377376 58.69315402 -25.37959174 59.17545806 -29.27539062 59.65820312 C-31.76557994 59.9639089 -34.25581274 60.2692608 -36.74609375 60.57421875 C-37.90435165 60.71792404 -39.06260956 60.86162933 -40.25596619 61.00968933 C-41.33221756 61.14015152 -42.40846893 61.27061371 -43.51733398 61.4050293 C-44.92909157 61.57798775 -44.92909157 61.57798775 -46.36936951 61.75444031 C-48.93071425 61.99353243 -51.42928441 62.04431108 -54 62 C-51.53926947 57.39912706 -48.32026006 53.92806207 -44.75 50.1875 C-43.57208626 48.93697958 -42.39499529 47.68568365 -41.21875 46.43359375 C-40.65800781 45.83788574 -40.09726562 45.24217773 -39.51953125 44.62841797 C-37.17309368 42.11383915 -34.91894656 39.52491829 -32.671875 36.921875 C-30.64241927 34.58894926 -28.572353 32.29488755 -26.5 30 C-23.84886006 27.06321535 -21.21709829 24.11397458 -18.625 21.125 C-15.13245617 17.10898356 -11.52890459 13.19827209 -7.90673828 9.29931641 C-5.13305449 6.29790488 -2.51463222 3.22132044 0 0 Z " fill="#B2DB0D" transform="translate(622,514)"/>
<path d="M0 0 C6.33875977 0.40489875 12.57130897 1.20957257 18.828125 2.2890625 C26.32398465 3.56093542 33.82738259 4.7781183 41.3359375 5.97265625 C44.58180699 6.49261608 47.82753795 7.01343351 51.07324219 7.53442383 C53.29913425 7.8904283 55.52538084 8.24422225 57.75195312 8.59594727 C61.01012275 9.11125551 64.26685931 9.63489712 67.5234375 10.16015625 C68.51814056 10.31541275 69.51284363 10.47066925 70.53768921 10.63063049 C71.46030548 10.78096237 72.38292175 10.93129425 73.33349609 11.08618164 C74.1408017 11.21481094 74.9481073 11.34344025 75.77987671 11.47596741 C78.08762641 12.02068313 79.93009868 12.85755898 82 14 C63.00781353 26.35343243 43.85456084 38.45504751 24.58447266 50.37060547 C22.93380632 51.41127684 21.30076103 52.48081003 19.69287109 53.58642578 C14.7004216 56.97662014 14.7004216 56.97662014 11.19140625 57.09375 C8.34514563 55.67315646 7.47383056 54.27309806 5.9375 51.5 C5.43605469 50.59507812 4.93460937 49.69015625 4.41796875 48.7578125 C-0.52995114 39.13458539 -3.38273627 30.50832966 -3.3125 19.625 C-3.31121094 18.79444092 -3.30992187 17.96388184 -3.30859375 17.1081543 C-3.21359406 11.04064265 -2.42640137 5.6182746 0 0 Z " fill="#B1DB0D" transform="translate(470,569)"/>
<path d="M0 0 C2.6888542 1.29383736 5.18070178 2.70476473 7.66015625 4.36328125 C8.36132568 4.83113037 9.06249512 5.29897949 9.78491211 5.78100586 C10.53651611 6.28639893 11.28812012 6.79179199 12.0625 7.3125 C12.85470947 7.84302979 13.64691895 8.37355957 14.46313477 8.92016602 C22.53352384 14.33614562 30.55292902 19.82631392 38.56494141 25.328125 C42.74942716 28.20113066 46.93703523 31.06956915 51.125 33.9375 C51.88224365 34.45691162 52.6394873 34.97632324 53.41967773 35.51147461 C58.58543499 39.04971916 63.78283335 42.53803398 69 46 C68.23547989 50.63410778 66.49178423 53.59821131 63.625 57.25 C63.18091797 57.81847656 62.73683594 58.38695312 62.27929688 58.97265625 C53.68523148 69.62208554 41.94378344 78.47844708 28 80 C25.33035046 80.0526821 22.67074207 80.03079472 20 80 C14.28102078 58.20140587 14.28102078 58.20140587 12 49 C10.37860182 42.46711651 8.69937153 35.95052838 7 29.4375 C6.74395996 28.45555664 6.48791992 27.47361328 6.22412109 26.46191406 C5.07581176 22.06997984 3.9190017 17.68095736 2.7265625 13.30078125 C2.44425781 12.26062866 2.44425781 12.26062866 2.15625 11.19946289 C1.66239275 9.38721558 1.16343565 7.57636015 0.6640625 5.765625 C0 3 0 3 0 0 Z " fill="#B1DB0C" transform="translate(567,591)"/>
<path d="M0 0 C-0.8219831 3.86452363 -2.27492806 7.47250231 -3.7121582 11.1394043 C-3.9887326 11.85039276 -4.26530701 12.56138123 -4.55026245 13.29391479 C-5.46380739 15.63865223 -6.38162433 17.98167585 -7.30078125 20.32421875 C-7.61481588 21.12467936 -7.92885052 21.92513996 -8.25240135 22.74985695 C-9.9132776 26.97992866 -11.57829564 31.20834777 -13.24584961 35.43579102 C-14.62672193 38.93904875 -15.99868704 42.44559767 -17.36303711 45.95532227 C-19.0103734 50.19288964 -20.67271124 54.42426633 -22.34615135 58.65159035 C-22.98179168 60.26469751 -23.61208245 61.87992306 -24.23696327 63.49722862 C-25.11011377 65.75375038 -26.00232877 68.00178431 -26.8996582 70.2487793 C-27.15487747 70.92150375 -27.41009674 71.59422821 -27.67304993 72.28733826 C-29.49126419 76.75713959 -29.49126419 76.75713959 -32.02946472 77.96882629 C-40.36780574 78.10073816 -50.69028166 70.99568694 -57 66 C-57.33 65.01 -57.66 64.02 -58 63 C-58.99 62.67 -59.98 62.34 -61 62 C-67.17711738 55.01110539 -73 46.58350169 -73 37 C-72.09983154 36.5373877 -71.19966309 36.07477539 -70.2722168 35.59814453 C-49.47897346 24.92354061 -49.47897346 24.92354061 -28.75 14.125 C-28.01483154 13.73973145 -27.27966309 13.35446289 -26.5222168 12.95751953 C-23.71516226 11.47714885 -20.94651486 9.96783359 -18.2265625 8.33203125 C-16 7 -16 7 -12.625 5.5625 C-9.96853856 4.41747352 -7.65585391 3.26990646 -5.1875 1.8125 C-2 0 -2 0 0 0 Z " fill="#B1DB0C" transform="translate(554,591)"/>
<path d="M0 0 C3.02654005 3.7635222 5.36309697 7.87977244 7.75 12.0625 C8.17410156 12.78244141 8.59820312 13.50238281 9.03515625 14.24414062 C9.43089844 14.93830078 9.82664063 15.63246094 10.234375 16.34765625 C10.77916504 17.29137085 10.77916504 17.29137085 11.33496094 18.25415039 C12 20 12 20 11 23 C8.4375 24.1875 8.4375 24.1875 6 25 C5.34 24.34 4.68 23.68 4 23 C4.99 22.01 5.98 21.02 7 20 C5.02 19.01 3.04 18.02 1 17 C1 15.35 1 13.7 1 12 C2.32 12.66 3.64 13.32 5 14 C4.01 11.03 3.02 8.06 2 5 C1.34 5 0.68 5 0 5 C0 3.35 0 1.7 0 0 Z " fill="#74A41F" transform="translate(183,461)"/>
<path d="M0 0 C0.99 0 1.98 0 3 0 C4.25854492 1.56054688 4.25854492 1.56054688 5.48046875 3.71875 C5.92197266 4.48574219 6.36347656 5.25273437 6.81835938 6.04296875 C7.27017578 6.85378906 7.72199219 7.66460937 8.1875 8.5 C8.65091797 9.31082031 9.11433594 10.12164062 9.59179688 10.95703125 C10.73801829 12.96587291 11.87343772 14.98008805 13 17 C12.34 17.66 11.68 18.32 11 19 C8.03 13.72 5.06 8.44 2 3 C1.67 3.99 1.34 4.98 1 6 C1.66 6 2.32 6 3 6 C4.32 9.3 5.64 12.6 7 16 C5.68 16 4.36 16 3 16 C2.34 16.66 1.68 17.32 1 18 C0.10395632 11.95170514 -0.11269443 6.1105424 0 0 Z " fill="#92BA4C" transform="translate(182,460)"/>
<path d="M0 0 C2.6875 0 2.6875 0 6 1 C9.37657887 4.81282936 11 7.88021735 11 13 C7 13 7 13 5.375 11.5625 C4.92125 11.046875 4.4675 10.53125 4 10 C3.34 9.67 2.68 9.34 2 9 C1.3671875 6.93359375 1.3671875 6.93359375 0.875 4.4375 C0.70742188 3.61121094 0.53984375 2.78492188 0.3671875 1.93359375 C0.24601563 1.29550781 0.12484375 0.65742187 0 0 Z " fill="#739F24" transform="translate(649,520)"/>
<path d="M0 0 C0.66 0.33 1.32 0.66 2 1 C2 1.99 2 2.98 2 4 C-1.78359235 6.02498379 -5.57384289 8.036707 -9.37084961 10.03637695 C-10.66182939 10.71863371 -11.95091237 11.40449217 -13.23803711 12.09399414 C-15.08742438 13.08389739 -16.94322376 14.06069033 -18.80078125 15.03515625 C-19.91622314 15.6269165 -21.03166504 16.21867676 -22.1809082 16.82836914 C-25 18 -25 18 -28 17 C-27.4548877 16.7424292 -26.90977539 16.4848584 -26.34814453 16.21948242 C-23.59834485 14.79140492 -21.03677061 13.16315167 -18.4296875 11.48828125 C-17.36878906 10.81345703 -16.30789063 10.13863281 -15.21484375 9.44335938 C-13.53659787 8.37261888 -11.85838902 7.30179478 -10.18505859 6.22338867 C-8.56291399 5.17943188 -6.9338995 4.14617387 -5.3046875 3.11328125 C-3.8503833 2.18189331 -3.8503833 2.18189331 -2.36669922 1.23168945 C-1.58568848 0.82523193 -0.80467773 0.41877441 0 0 Z " fill="#F3F9DF" transform="translate(508,610)"/>
<path d="M0 0 C0.66 0.33 1.32 0.66 2 1 C-6.91 9.91 -15.82 18.82 -25 28 C-25.66 27.67 -26.32 27.34 -27 27 C-24.81467248 24.64380886 -22.6263303 22.29043713 -20.4375 19.9375 C-19.82841797 19.28072266 -19.21933594 18.62394531 -18.59179688 17.94726562 C-12.68352056 11.60133921 -6.76148995 5.44217484 0 0 Z " fill="#8FB54C" transform="translate(255,291)"/>
<path d="M0 0 C0.78375 0.474375 1.5675 0.94875 2.375 1.4375 C3.88948678 2.33898023 5.4235897 3.21179485 7 4 C5.68 4.99 4.36 5.98 3 7 C3.66 7.33 4.32 7.66 5 8 C7.11683841 7.10836423 7.11683841 7.10836423 9 6 C9 4.68 9 3.36 9 2 C9.66 2 10.32 2 11 2 C11.25 4.3125 11.25 4.3125 11 7 C8.80250883 9.3602683 7.60796181 9.97104944 4.375 10.125 C3.59125 10.08375 2.8075 10.0425 2 10 C1.01 10.495 1.01 10.495 0 11 C-0.19406478 9.35492782 -0.38007935 7.70890406 -0.5625 6.0625 C-0.66691406 5.14597656 -0.77132812 4.22945313 -0.87890625 3.28515625 C-0.91886719 2.53105469 -0.95882812 1.77695312 -1 1 C-0.67 0.67 -0.34 0.34 0 0 Z " fill="#8DB743" transform="translate(185,477)"/>
<path d="M0 0 C0.66 0.33 1.32 0.66 2 1 C-5.26 8.26 -12.52 15.52 -20 23 C-20 18.69406342 -17.4269306 16.78604885 -14.625 13.8125 C-14.11710937 13.25369141 -13.60921875 12.69488281 -13.0859375 12.11914062 C-11.77042942 10.70150758 -10.38925142 9.34544619 -9 8 C-8.34 8 -7.68 8 -7 8 C-7 7.34 -7 6.68 -7 6 C-5.46875 4.4921875 -5.46875 4.4921875 -3.5 2.875 C-2.8503125 2.33617187 -2.200625 1.79734375 -1.53125 1.2421875 C-1.0259375 0.83226562 -0.520625 0.42234375 0 0 Z " fill="#80A34B" transform="translate(520,222)"/>
<path d="M0 0 C0.66 0.33 1.32 0.66 2 1 C1.67 1.33 1.34 1.66 1 2 C1.66 2.66 2.32 3.32 3 4 C1.948125 4.433125 0.89625 4.86625 -0.1875 5.3125 C-2.56745921 6.31332792 -4.45464425 7.30309617 -6.625 8.75 C-9 10 -9 10 -11.8125 9.6875 C-12.534375 9.460625 -13.25625 9.23375 -14 9 C-13.01 8.34 -12.02 7.68 -11 7 C-9.69869141 6.12794922 -9.69869141 6.12794922 -8.37109375 5.23828125 C-7.40300781 4.60277344 -6.43492187 3.96726562 -5.4375 3.3125 C-4.46683594 2.66925781 -3.49617187 2.02601563 -2.49609375 1.36328125 C-1.67238281 0.91339844 -0.84867188 0.46351563 0 0 Z " fill="#F2F8DD" transform="translate(255,515)"/>
<path d="M0 0 C4.875 4.625 4.875 4.625 6 8 C4.68 8.33 3.36 8.66 2 9 C2.33 10.98 2.66 12.96 3 15 C0.9375 13.6875 0.9375 13.6875 -1 11 C-1.05898893 7.27297245 -0.58315738 3.67642697 0 0 Z " fill="#8FB748" transform="translate(648,513)"/>
<path d="M0 0 C0.66 0 1.32 0 2 0 C3.32 3.3 4.64 6.6 6 10 C4.68 10 3.36 10 2 10 C1.34 10.66 0.68 11.32 0 12 C0 8.04 0 4.08 0 0 Z " fill="#89B33E" transform="translate(183,466)"/>
<path d="M0 0 C2.475 0.99 2.475 0.99 5 2 C5 2.66 5 3.32 5 4 C6.32 4 7.64 4 9 4 C9.33 3.34 9.66 2.68 10 2 C10.66 3.65 11.32 5.3 12 7 C8.89910366 6.98699834 5.99392117 6.84403097 3 6 C0.9375 2.9375 0.9375 2.9375 0 0 Z " fill="#8AB53E" transform="translate(651,529)"/>
<path d="M0 0 C1.67110042 2.96178773 2.32682752 5.37071192 2.625 8.75 C2.69976563 9.54921875 2.77453125 10.3484375 2.8515625 11.171875 C2.90054688 11.77515625 2.94953125 12.3784375 3 13 C2.01 13.495 2.01 13.495 1 14 C-1.20808081 8.80451575 -0.93402724 5.41735797 0 0 Z " fill="#F2F9DD" transform="translate(584,658)"/>
<path d="M0 0 C0 0.66 0 1.32 0 2 C-1.76371818 3.03307771 -3.53625033 4.05112049 -5.3125 5.0625 C-6.79169922 5.91521484 -6.79169922 5.91521484 -8.30078125 6.78515625 C-11 8 -11 8 -14 7 C-13.42507813 6.72414063 -12.85015625 6.44828125 -12.2578125 6.1640625 C-9.30751757 4.64297619 -6.58192838 2.83650419 -3.8046875 1.0234375 C-2 0 -2 0 0 0 Z " fill="#DEEEA7" transform="translate(494,620)"/>
<path d="M0 0 C2.52259061 1.97420135 2.9929808 2.96745642 3.6875 6.1875 C3.790625 7.115625 3.89375 8.04375 4 9 C2.68 9 1.36 9 0 9 C-1.10844919 5.67465243 -0.84454356 3.37817425 0 0 Z " fill="#7DA731" transform="translate(656,524)"/>
</svg>
